<?xml version="1.0" encoding="utf-8" ?>
<svg baseProfile="full" height="769" version="1.1" width="863" xmlns="http://www.w3.org/2000/svg" xmlns:ev="http://www.w3.org/2001/xml-events" xmlns:xlink="http://www.w3.org/1999/xlink"><defs><linearGradient id="blueGradient" x1="0" x2="0" y1="0" y2="1"><stop offset="0" stop-color="deepskyblue" /><stop offset="1" stop-color="dodgerblue" /></linearGradient></defs><path d="M 538,702 L 538,703 L 542,703 L 542,702 Z" fill="url(#blueGradient)" /><path d="M 542,696 Z" fill="url(#blueGradient)" /><path d="M 539,695 Z" fill="url(#blueGradient)" /><path d="M 328,695 Z" fill="url(#blueGradient)" /><path d="M 315,687 Z" fill="url(#blueGradient)" /><path d="M 558,683 L 557,684 Z" fill="url(#blueGradient)" /><path d="M 566,679 Z" fill="url(#blueGradient)" /><path d="M 351,674 Z" fill="url(#blueGradient)" /><path d="M 590,670 Z" fill="url(#blueGradient)" /><path d="M 296,670 L 296,671 L 297,671 Z" fill="url(#blueGradient)" /><path d="M 528,657 L 528,659 L 529,658 L 529,657 Z" fill="url(#blueGradient)" /><path d="M 351,657 L 351,658 Z" fill="url(#blueGradient)" /><path d="M 591,654 L 591,655 Z" fill="url(#blueGradient)" /><path d="M 277,651 Z" fill="url(#blueGradient)" /><path d="M 266,638 Z" fill="url(#blueGradient)" /><path d="M 601,631 L 601,632 L 602,631 L 603,631 Z" fill="url(#blueGradient)" /><path d="M 602,628 Z" fill="url(#blueGradient)" /><path d="M 343,625 L 343,626 Z" fill="url(#blueGradient)" /><path d="M 616,606 L 617,606 Z" fill="url(#blueGradient)" /><path d="M 528,590 Z" fill="url(#blueGradient)" /><path d="M 240,590 L 241,590 Z" fill="url(#blueGradient)" /><path d="M 619,589 L 619,590 Z" fill="url(#blueGradient)" /><path d="M 532,589 L 532,591 Z" fill="url(#blueGradient)" /><path d="M 351,573 L 351,574 Z" fill="url(#blueGradient)" /><path d="M 521,558 L 521,559 Z" fill="url(#blueGradient)" /><path d="M 347,558 Z" fill="url(#blueGradient)" /><path d="M 351,556 L 351,558 Z" fill="url(#blueGradient)" /><path d="M 350,552 Z" fill="url(#blueGradient)" /><path d="M 232,539 L 232,540 Z" fill="url(#blueGradient)" /><path d="M 232,536 L 232,537 Z" fill="url(#blueGradient)" /><path d="M 232,531 L 232,532 Z" fill="url(#blueGradient)" /><path d="M 356,527 Z" fill="url(#blueGradient)" /><path d="M 504,511 Z" fill="url(#blueGradient)" /><path d="M 365,511 Z" fill="url(#blueGradient)" /><path d="M 630,497 Z" fill="url(#blueGradient)" /><path d="M 496,492 L 496,495 L 497,494 L 497,493 Z" fill="url(#blueGradient)" /><path d="M 234,480 L 234,487 Z" fill="url(#blueGradient)" /><path d="M 375,477 L 374,478 L 375,479 Z" fill="url(#blueGradient)" /><path d="M 486,470 Z" fill="url(#blueGradient)" /><path d="M 484,467 Z" fill="url(#blueGradient)" /><path d="M 394,442 L 394,443 L 395,443 L 395,442 Z" fill="url(#blueGradient)" /><path d="M 398,436 L 399,437 L 399,436 Z" fill="url(#blueGradient)" /><path d="M 461,431 L 462,431 Z" fill="url(#blueGradient)" /><path d="M 405,431 Z" fill="url(#blueGradient)" /><path d="M 241,431 L 240,432 L 240,434 L 241,435 L 241,436 L 241,433 L 240,432 Z" fill="url(#blueGradient)" /><path d="M 405,427 Z" fill="url(#blueGradient)" /><path d="M 410,426 L 410,427 L 411,428 L 412,427 L 412,426 Z" fill="url(#blueGradient)" /><path d="M 453,423 Z" fill="url(#blueGradient)" /><path d="M 430,415 L 431,415 Z" fill="url(#blueGradient)" /><path d="M 439,414 L 440,415 L 441,415 L 440,415 Z" fill="url(#blueGradient)" /><path d="M 615,401 Z" fill="url(#blueGradient)" /><path d="M 248,401 L 248,402 L 249,403 L 249,404 L 249,402 L 250,401 Z" fill="url(#blueGradient)" /><path d="M 612,384 L 612,389 L 613,389 L 613,384 Z" fill="url(#blueGradient)" /><path d="M 248,381 L 248,383 Z" fill="url(#blueGradient)" /><path d="M 616,350 Z" fill="url(#blueGradient)" /><path d="M 241,349 L 240,350 L 240,351 L 241,350 Z" fill="url(#blueGradient)" /><path d="M 622,335 Z" fill="url(#blueGradient)" /><path d="M 619,332 L 618,333 L 618,335 L 619,335 Z" fill="url(#blueGradient)" /><path d="M 631,312 Z" fill="url(#blueGradient)" /><path d="M 654,252 L 654,254 L 655,254 L 655,253 Z" fill="url(#blueGradient)" /><path d="M 215,177 L 216,177 Z" fill="url(#blueGradient)" /><path d="M 208,177 Z" fill="url(#blueGradient)" /><path d="M 654,176 L 655,177 L 655,176 Z" fill="url(#blueGradient)" /><path d="M 645,160 L 645,161 Z" fill="url(#blueGradient)" /><path d="M 232,153 Z" fill="url(#blueGradient)" /><path d="M 440,147 L 441,147 Z" fill="url(#blueGradient)" /><path d="M 433,147 L 437,147 Z" fill="url(#blueGradient)" /><path d="M 638,144 L 638,145 L 639,145 L 639,144 Z" fill="url(#blueGradient)" /><path d="M 256,132 Z" fill="url(#blueGradient)" /><path d="M 488,130 Z" fill="url(#blueGradient)" /><path d="M 260,128 L 259,129 L 261,129 L 261,128 Z" fill="url(#blueGradient)" /><path d="M 598,121 L 599,121 Z" fill="url(#blueGradient)" /><path d="M 359,121 Z" fill="url(#blueGradient)" /><path d="M 348,120 L 349,120 Z" fill="url(#blueGradient)" /><path d="M 275,120 Z" fill="url(#blueGradient)" /><path d="M 512,119 L 512,121 L 514,121 L 514,119 Z" fill="url(#blueGradient)" /><path d="M 280,117 L 280,118 L 281,118 L 281,117 Z" fill="url(#blueGradient)" /><path d="M 529,116 Z" fill="url(#blueGradient)" /><path d="M 574,115 L 575,115 Z" fill="url(#blueGradient)" /><path d="M 525,115 L 525,116 L 526,117 L 527,116 L 527,115 Z" fill="url(#blueGradient)" /><path d="M 337,115 L 337,116 Z" fill="url(#blueGradient)" /><path d="M 569,114 L 568,115 L 567,115 L 569,115 Z" fill="url(#blueGradient)" /><path d="M 301,114 L 300,115 L 299,115 L 298,116 L 294,116 L 293,117 L 292,117 L 291,118 L 289,118 L 288,117 L 285,120 L 282,120 L 280,122 L 278,122 L 276,124 L 275,124 L 273,122 L 272,122 L 273,123 L 274,123 L 275,124 L 274,125 L 272,125 L 272,126 L 270,128 L 269,128 L 268,129 L 267,129 L 263,133 L 262,132 L 260,132 L 260,133 L 261,134 L 259,136 L 258,136 L 255,139 L 254,139 L 253,140 L 252,140 L 252,141 L 249,144 L 248,144 L 242,150 L 242,151 L 241,152 L 240,152 L 237,155 L 235,155 L 235,156 L 236,157 L 234,159 L 234,160 L 231,163 L 230,162 L 230,160 L 227,160 L 228,161 L 228,162 L 230,162 L 231,163 L 230,164 L 230,165 L 229,166 L 229,167 L 226,170 L 225,169 L 225,167 L 224,166 L 224,171 L 225,172 L 225,173 L 224,174 L 224,175 L 222,177 L 222,178 L 220,180 L 220,182 L 219,183 L 219,184 L 217,186 L 217,187 L 216,188 L 216,191 L 215,192 L 215,193 L 214,194 L 214,196 L 211,199 L 212,200 L 211,201 L 211,206 L 210,207 L 209,206 L 209,203 L 208,203 L 209,204 L 208,205 L 208,207 L 209,207 L 210,208 L 210,209 L 209,210 L 209,213 L 208,214 L 208,220 L 207,221 L 207,226 L 206,227 L 206,231 L 205,232 L 205,233 L 204,234 L 205,235 L 204,236 L 204,241 L 205,242 L 205,245 L 206,246 L 206,250 L 207,251 L 207,255 L 208,256 L 208,264 L 209,265 L 209,269 L 210,270 L 210,271 L 209,272 L 209,274 L 210,275 L 210,277 L 211,278 L 211,280 L 212,281 L 212,283 L 213,284 L 213,286 L 215,288 L 215,290 L 216,291 L 216,295 L 218,297 L 218,298 L 219,299 L 219,300 L 220,301 L 220,304 L 219,305 L 220,305 L 222,307 L 222,308 L 223,309 L 223,310 L 224,311 L 224,313 L 225,314 L 225,315 L 226,316 L 226,317 L 225,318 L 226,317 L 228,319 L 228,320 L 229,321 L 229,325 L 228,326 L 228,327 L 229,327 L 229,326 L 230,325 L 231,325 L 232,326 L 232,327 L 233,328 L 233,329 L 234,330 L 234,332 L 236,334 L 236,336 L 239,339 L 239,340 L 241,342 L 241,343 L 242,344 L 242,345 L 243,346 L 243,347 L 244,348 L 244,349 L 245,350 L 245,352 L 246,353 L 246,357 L 247,358 L 247,359 L 248,360 L 248,361 L 250,363 L 250,365 L 249,366 L 249,367 L 251,367 L 252,368 L 252,371 L 253,372 L 253,377 L 254,378 L 254,383 L 253,384 L 253,385 L 254,386 L 254,390 L 253,391 L 253,395 L 252,396 L 252,403 L 251,404 L 251,405 L 250,406 L 249,406 L 249,407 L 250,408 L 249,409 L 249,414 L 248,415 L 248,417 L 247,418 L 247,420 L 246,421 L 246,423 L 245,424 L 245,431 L 244,432 L 244,436 L 243,437 L 243,438 L 242,439 L 242,448 L 241,449 L 240,449 L 241,450 L 241,455 L 240,456 L 240,463 L 239,464 L 239,468 L 238,469 L 238,472 L 237,473 L 236,473 L 236,479 L 237,480 L 237,485 L 236,486 L 236,487 L 237,488 L 236,489 L 236,522 L 237,523 L 237,535 L 238,536 L 238,543 L 239,544 L 239,548 L 240,549 L 240,555 L 241,556 L 241,559 L 240,560 L 241,559 L 242,560 L 242,569 L 244,571 L 244,574 L 245,575 L 245,578 L 246,579 L 246,583 L 247,584 L 247,586 L 248,587 L 248,591 L 250,593 L 250,598 L 252,600 L 252,601 L 254,603 L 254,604 L 255,605 L 255,607 L 256,608 L 256,612 L 257,613 L 257,615 L 256,616 L 257,617 L 257,618 L 257,617 L 256,616 L 257,615 L 257,614 L 258,613 L 260,615 L 260,620 L 258,622 L 258,623 L 259,623 L 259,621 L 260,620 L 261,620 L 262,621 L 262,623 L 263,624 L 263,625 L 264,626 L 264,627 L 265,627 L 266,628 L 266,631 L 271,636 L 271,638 L 272,639 L 272,640 L 273,639 L 274,640 L 274,643 L 275,644 L 276,644 L 278,646 L 278,647 L 279,647 L 280,648 L 280,649 L 281,650 L 281,651 L 283,653 L 283,655 L 285,655 L 288,658 L 288,659 L 291,662 L 291,663 L 292,664 L 292,666 L 293,667 L 296,667 L 297,668 L 298,668 L 299,669 L 299,670 L 300,671 L 302,671 L 304,673 L 304,676 L 305,677 L 306,677 L 307,678 L 308,677 L 310,679 L 311,679 L 312,680 L 312,682 L 313,682 L 315,684 L 318,684 L 319,685 L 320,685 L 321,686 L 320,687 L 322,687 L 323,688 L 324,688 L 328,692 L 329,692 L 330,693 L 330,694 L 334,694 L 336,696 L 337,696 L 338,697 L 340,697 L 341,698 L 342,698 L 343,699 L 346,699 L 346,698 L 347,697 L 347,695 L 349,693 L 349,690 L 350,689 L 350,688 L 351,687 L 350,688 L 349,688 L 348,687 L 348,685 L 347,684 L 347,680 L 346,679 L 346,677 L 345,676 L 345,665 L 344,664 L 344,662 L 343,661 L 343,656 L 342,655 L 342,650 L 341,649 L 341,632 L 340,631 L 340,623 L 339,622 L 339,608 L 340,607 L 340,600 L 341,599 L 341,580 L 342,579 L 342,576 L 343,575 L 343,570 L 344,569 L 344,565 L 345,564 L 345,555 L 346,554 L 346,552 L 347,551 L 347,547 L 348,546 L 348,544 L 349,543 L 350,544 L 350,545 L 350,544 L 349,543 L 349,540 L 351,538 L 351,533 L 352,532 L 352,529 L 354,527 L 354,525 L 355,524 L 355,522 L 356,521 L 357,521 L 357,520 L 358,519 L 358,512 L 359,511 L 359,509 L 360,508 L 360,507 L 361,506 L 361,505 L 363,503 L 363,499 L 364,498 L 364,496 L 365,495 L 366,496 L 365,495 L 365,493 L 366,492 L 366,491 L 367,490 L 367,488 L 368,487 L 368,484 L 370,482 L 371,482 L 370,481 L 371,480 L 371,477 L 372,476 L 372,475 L 374,473 L 374,472 L 375,471 L 375,467 L 376,466 L 376,465 L 377,464 L 378,464 L 377,463 L 378,462 L 378,460 L 380,458 L 380,457 L 381,456 L 381,455 L 382,454 L 382,453 L 383,452 L 383,450 L 384,449 L 384,448 L 385,447 L 388,447 L 390,445 L 390,444 L 389,445 L 388,445 L 387,444 L 388,443 L 388,442 L 390,440 L 391,440 L 392,439 L 393,439 L 392,438 L 393,437 L 393,436 L 398,431 L 399,431 L 399,430 L 400,429 L 401,430 L 401,431 L 402,431 L 400,429 L 406,423 L 407,423 L 410,420 L 411,420 L 412,419 L 413,420 L 414,419 L 414,417 L 416,415 L 417,415 L 418,414 L 419,414 L 420,413 L 422,413 L 423,414 L 423,413 L 424,412 L 425,412 L 426,411 L 427,411 L 428,410 L 437,410 L 438,411 L 441,411 L 442,412 L 443,412 L 444,413 L 445,413 L 446,414 L 447,414 L 448,415 L 449,415 L 450,416 L 451,416 L 452,417 L 452,418 L 453,418 L 454,419 L 455,419 L 457,421 L 457,422 L 458,423 L 458,425 L 462,425 L 463,426 L 463,427 L 465,429 L 465,430 L 464,431 L 465,430 L 468,433 L 468,434 L 470,436 L 470,437 L 472,439 L 472,440 L 474,442 L 474,443 L 476,445 L 475,446 L 475,447 L 477,447 L 480,450 L 480,453 L 482,455 L 482,457 L 481,458 L 480,458 L 480,462 L 481,462 L 480,461 L 481,460 L 481,458 L 482,457 L 484,459 L 484,461 L 486,463 L 486,465 L 487,466 L 487,467 L 488,468 L 488,471 L 489,471 L 490,472 L 490,474 L 492,476 L 492,478 L 495,481 L 495,482 L 496,483 L 496,484 L 495,485 L 496,486 L 496,487 L 498,489 L 498,490 L 499,491 L 499,495 L 500,495 L 502,497 L 502,501 L 503,502 L 503,503 L 504,504 L 504,505 L 506,507 L 506,508 L 507,509 L 507,511 L 506,512 L 507,513 L 507,515 L 508,515 L 510,517 L 510,518 L 511,519 L 511,521 L 512,522 L 512,524 L 514,526 L 514,527 L 515,528 L 515,529 L 516,530 L 516,535 L 519,538 L 519,539 L 520,540 L 520,543 L 521,544 L 521,545 L 522,546 L 522,551 L 523,552 L 523,553 L 524,554 L 524,555 L 525,556 L 525,557 L 526,558 L 526,559 L 528,561 L 528,568 L 530,570 L 530,572 L 529,573 L 528,572 L 528,580 L 528,579 L 529,578 L 529,575 L 530,574 L 531,575 L 531,576 L 532,577 L 532,582 L 533,583 L 533,585 L 534,586 L 534,592 L 535,593 L 535,595 L 536,596 L 536,603 L 537,604 L 537,619 L 538,620 L 538,624 L 537,625 L 537,631 L 536,632 L 536,634 L 537,635 L 537,639 L 536,640 L 536,650 L 535,651 L 535,655 L 534,656 L 534,661 L 533,662 L 533,665 L 532,666 L 532,673 L 531,674 L 531,678 L 530,679 L 529,678 L 529,672 L 528,672 L 528,674 L 529,675 L 529,680 L 530,681 L 530,685 L 529,686 L 529,689 L 528,690 L 528,693 L 529,694 L 530,694 L 531,695 L 533,695 L 534,694 L 535,694 L 536,693 L 537,693 L 539,691 L 541,691 L 542,690 L 543,690 L 545,688 L 546,688 L 547,687 L 549,687 L 553,683 L 554,683 L 556,681 L 557,681 L 558,680 L 559,680 L 559,679 L 561,677 L 564,677 L 564,676 L 565,675 L 565,674 L 568,671 L 569,671 L 570,670 L 570,669 L 571,668 L 572,668 L 575,665 L 575,664 L 578,661 L 579,661 L 580,660 L 580,658 L 581,657 L 581,656 L 582,655 L 583,655 L 583,653 L 584,652 L 585,652 L 586,653 L 585,654 L 586,654 L 587,655 L 588,655 L 587,654 L 587,653 L 586,653 L 585,652 L 585,651 L 587,649 L 587,648 L 589,646 L 590,647 L 589,646 L 589,645 L 590,644 L 591,644 L 591,641 L 593,639 L 595,639 L 595,638 L 596,637 L 596,635 L 597,634 L 597,633 L 599,631 L 599,629 L 600,628 L 600,627 L 601,626 L 601,624 L 602,623 L 603,623 L 604,624 L 604,619 L 605,618 L 606,619 L 606,621 L 607,622 L 607,623 L 607,620 L 605,618 L 605,615 L 606,614 L 607,615 L 607,611 L 608,610 L 608,609 L 609,608 L 609,607 L 610,606 L 610,605 L 611,604 L 612,605 L 612,607 L 613,607 L 613,603 L 613,604 L 612,605 L 611,604 L 611,602 L 613,600 L 613,599 L 614,598 L 614,594 L 615,593 L 616,594 L 616,596 L 617,596 L 617,592 L 616,591 L 616,589 L 617,588 L 617,585 L 619,583 L 620,583 L 620,580 L 621,579 L 621,576 L 622,575 L 622,574 L 621,573 L 621,569 L 622,568 L 623,568 L 622,567 L 622,566 L 623,565 L 623,560 L 624,559 L 624,555 L 625,554 L 625,551 L 627,549 L 627,531 L 628,530 L 628,496 L 627,495 L 627,488 L 628,487 L 628,484 L 629,483 L 629,481 L 628,481 L 627,480 L 627,479 L 628,478 L 628,477 L 627,476 L 627,474 L 625,474 L 624,473 L 624,466 L 623,465 L 623,458 L 622,457 L 622,456 L 621,455 L 621,450 L 622,449 L 622,448 L 621,448 L 620,447 L 620,445 L 619,444 L 619,439 L 618,438 L 618,436 L 617,435 L 617,424 L 616,423 L 616,421 L 615,420 L 615,415 L 614,414 L 614,411 L 613,410 L 613,409 L 614,408 L 613,408 L 612,407 L 612,401 L 611,400 L 611,395 L 610,394 L 610,383 L 611,382 L 611,376 L 610,377 L 609,376 L 609,371 L 608,370 L 608,365 L 609,364 L 609,358 L 610,357 L 611,357 L 611,351 L 610,350 L 611,349 L 611,346 L 614,343 L 614,337 L 615,336 L 615,335 L 616,334 L 616,332 L 617,331 L 617,329 L 618,328 L 619,328 L 619,327 L 620,326 L 620,324 L 621,323 L 621,320 L 622,319 L 623,319 L 623,315 L 625,313 L 625,312 L 627,310 L 627,308 L 628,307 L 628,305 L 629,304 L 629,303 L 630,302 L 630,301 L 631,300 L 631,299 L 633,297 L 634,297 L 635,298 L 636,297 L 636,296 L 634,294 L 634,292 L 635,291 L 635,290 L 636,289 L 636,288 L 638,286 L 639,287 L 639,289 L 639,287 L 638,286 L 638,285 L 639,284 L 639,282 L 640,281 L 640,280 L 642,278 L 643,279 L 643,274 L 644,273 L 644,272 L 645,271 L 645,270 L 646,269 L 646,268 L 647,267 L 647,266 L 648,265 L 648,264 L 649,263 L 649,260 L 650,259 L 650,257 L 651,256 L 651,254 L 652,253 L 652,251 L 653,250 L 653,247 L 654,246 L 654,242 L 655,241 L 655,239 L 656,238 L 656,230 L 658,228 L 658,208 L 657,207 L 657,205 L 656,204 L 656,199 L 655,198 L 655,194 L 654,193 L 654,192 L 653,191 L 653,186 L 652,185 L 652,183 L 651,182 L 651,181 L 649,179 L 649,178 L 648,177 L 648,176 L 647,175 L 647,174 L 646,173 L 646,172 L 645,171 L 645,168 L 643,166 L 643,165 L 642,165 L 640,163 L 640,161 L 639,160 L 638,160 L 637,159 L 637,158 L 636,157 L 636,156 L 635,156 L 630,151 L 631,150 L 630,151 L 627,148 L 627,147 L 626,147 L 623,144 L 623,143 L 620,140 L 621,139 L 623,139 L 622,138 L 623,137 L 623,136 L 622,136 L 621,137 L 620,136 L 619,136 L 620,137 L 620,138 L 621,139 L 620,140 L 619,140 L 616,137 L 616,136 L 614,136 L 613,135 L 613,134 L 611,134 L 607,130 L 607,129 L 606,130 L 605,130 L 604,129 L 604,128 L 602,128 L 601,127 L 600,127 L 597,124 L 595,124 L 594,123 L 592,123 L 591,122 L 588,122 L 586,120 L 585,120 L 584,119 L 581,119 L 580,118 L 576,118 L 575,117 L 565,117 L 564,116 L 551,116 L 550,117 L 542,117 L 541,118 L 534,118 L 533,119 L 532,119 L 531,120 L 528,120 L 527,121 L 525,121 L 524,122 L 519,122 L 518,123 L 517,123 L 515,125 L 514,125 L 513,126 L 512,126 L 510,128 L 507,128 L 506,129 L 505,129 L 504,130 L 502,130 L 501,129 L 499,129 L 498,128 L 496,128 L 497,129 L 501,129 L 502,130 L 501,131 L 500,131 L 499,132 L 497,132 L 495,134 L 492,134 L 491,135 L 489,135 L 488,136 L 486,136 L 485,137 L 484,137 L 483,138 L 480,138 L 478,140 L 476,140 L 475,141 L 474,141 L 473,142 L 472,142 L 471,143 L 470,143 L 469,144 L 467,144 L 465,146 L 464,146 L 463,145 L 464,144 L 457,144 L 461,144 L 463,146 L 462,147 L 457,147 L 456,148 L 451,148 L 450,149 L 429,149 L 428,148 L 422,148 L 421,147 L 416,147 L 415,146 L 415,145 L 414,146 L 409,146 L 408,145 L 407,145 L 406,144 L 401,144 L 399,142 L 398,142 L 395,139 L 392,139 L 391,138 L 391,137 L 390,137 L 389,138 L 388,137 L 388,136 L 382,136 L 380,134 L 378,134 L 377,133 L 376,133 L 375,132 L 376,131 L 377,131 L 376,131 L 375,132 L 374,132 L 373,131 L 372,131 L 371,130 L 368,130 L 367,129 L 367,128 L 363,128 L 362,127 L 359,127 L 357,125 L 357,124 L 352,124 L 351,123 L 348,123 L 345,120 L 337,120 L 335,118 L 331,118 L 330,117 L 328,117 L 327,116 L 320,116 L 319,115 L 304,115 L 303,114 Z" fill="url(#blueGradient)" /><path d="M 615,592 L 616,591 L 617,592 L 616,593 Z" fill="white" /><path d="M 513,174 L 514,173 L 517,173 L 518,174 L 518,175 L 517,176 L 516,176 L 514,178 L 513,178 L 512,177 L 512,178 L 511,179 L 511,180 L 510,181 L 509,181 L 508,182 L 504,182 L 503,183 L 502,182 L 501,183 L 500,183 L 498,185 L 497,184 L 496,184 L 495,183 L 495,182 L 496,181 L 499,181 L 500,180 L 501,180 L 503,178 L 504,178 L 505,177 L 507,177 L 509,175 L 511,175 L 512,174 Z" fill="white" /><path d="M 519,171 L 520,171 L 521,172 L 519,174 L 518,174 L 517,173 Z" fill="white" /><path d="M 525,169 L 526,168 L 527,168 L 528,169 L 527,170 L 526,170 Z" fill="white" /><path d="M 527,168 L 528,167 L 529,167 L 530,168 L 529,169 L 528,169 Z" fill="white" /><path d="M 299,139 L 300,138 L 305,138 L 306,139 L 309,139 L 310,140 L 311,140 L 312,141 L 313,141 L 314,142 L 316,142 L 317,143 L 319,143 L 320,144 L 321,144 L 323,146 L 322,147 L 324,147 L 325,148 L 329,148 L 330,149 L 331,149 L 333,151 L 337,151 L 339,153 L 340,153 L 341,154 L 342,154 L 343,155 L 344,155 L 345,156 L 346,156 L 347,157 L 350,157 L 352,159 L 354,159 L 355,160 L 356,160 L 358,162 L 358,163 L 359,163 L 360,164 L 363,164 L 364,165 L 367,165 L 368,166 L 369,166 L 370,167 L 371,167 L 372,168 L 373,168 L 374,169 L 375,169 L 376,170 L 377,170 L 378,171 L 379,171 L 380,172 L 382,172 L 383,173 L 384,173 L 385,174 L 386,174 L 387,175 L 388,175 L 389,176 L 390,176 L 392,178 L 392,179 L 394,179 L 395,180 L 398,180 L 400,182 L 403,182 L 404,183 L 405,183 L 406,184 L 407,184 L 408,185 L 411,185 L 412,186 L 415,186 L 416,187 L 419,187 L 420,188 L 421,188 L 423,190 L 424,189 L 429,189 L 430,190 L 437,190 L 438,191 L 468,191 L 469,190 L 472,190 L 473,189 L 478,189 L 479,190 L 481,188 L 485,188 L 487,186 L 488,187 L 488,186 L 489,185 L 490,185 L 491,184 L 493,184 L 494,183 L 495,183 L 496,184 L 494,186 L 492,186 L 491,187 L 495,187 L 495,185 L 496,184 L 497,185 L 498,185 L 499,184 L 501,184 L 502,183 L 504,183 L 505,184 L 504,185 L 503,185 L 502,186 L 501,186 L 500,187 L 499,187 L 498,188 L 497,188 L 495,190 L 494,190 L 493,191 L 491,191 L 488,194 L 486,194 L 483,197 L 482,197 L 481,198 L 480,198 L 479,199 L 477,199 L 476,200 L 475,200 L 472,203 L 471,203 L 470,204 L 468,204 L 465,207 L 464,207 L 463,208 L 462,208 L 461,209 L 459,209 L 459,210 L 458,211 L 457,211 L 455,213 L 453,213 L 451,215 L 450,215 L 449,216 L 447,216 L 447,217 L 446,218 L 443,218 L 442,219 L 441,219 L 441,220 L 438,223 L 437,223 L 434,226 L 433,226 L 432,225 L 432,226 L 431,227 L 431,228 L 430,229 L 429,229 L 428,230 L 427,230 L 425,232 L 424,232 L 425,233 L 424,234 L 423,234 L 421,236 L 420,236 L 420,237 L 418,239 L 418,240 L 417,241 L 416,240 L 417,241 L 416,242 L 415,242 L 412,245 L 412,246 L 409,249 L 408,249 L 406,251 L 406,254 L 404,256 L 403,256 L 403,257 L 400,260 L 400,262 L 396,266 L 396,267 L 395,268 L 395,269 L 394,270 L 394,271 L 393,272 L 393,273 L 391,275 L 390,275 L 389,274 L 389,273 L 390,272 L 387,272 L 387,273 L 388,274 L 388,275 L 389,274 L 390,275 L 390,278 L 389,279 L 389,280 L 387,282 L 385,282 L 384,281 L 384,278 L 384,281 L 385,282 L 385,283 L 386,284 L 386,285 L 385,286 L 385,287 L 384,288 L 383,288 L 383,290 L 379,294 L 379,295 L 378,296 L 378,297 L 377,298 L 377,302 L 375,304 L 375,306 L 374,307 L 373,306 L 373,305 L 372,304 L 372,306 L 373,306 L 374,307 L 374,309 L 372,311 L 371,311 L 372,312 L 371,313 L 371,315 L 370,316 L 370,321 L 368,323 L 368,326 L 367,327 L 367,329 L 366,330 L 366,331 L 365,332 L 364,332 L 363,333 L 363,335 L 364,336 L 364,340 L 363,341 L 363,342 L 362,343 L 361,343 L 361,350 L 360,351 L 360,354 L 359,355 L 359,356 L 358,357 L 358,361 L 357,362 L 357,370 L 356,371 L 356,374 L 355,375 L 355,381 L 354,382 L 354,387 L 353,388 L 353,390 L 352,391 L 351,391 L 350,390 L 350,389 L 349,388 L 349,384 L 348,383 L 348,381 L 347,380 L 347,376 L 346,375 L 346,374 L 345,373 L 345,370 L 346,369 L 347,370 L 347,368 L 345,368 L 344,367 L 344,366 L 343,365 L 343,360 L 342,359 L 342,357 L 341,356 L 341,352 L 340,351 L 340,350 L 339,349 L 339,345 L 340,344 L 338,342 L 338,341 L 337,340 L 337,337 L 336,336 L 336,334 L 335,333 L 335,328 L 334,327 L 334,325 L 333,324 L 333,322 L 334,321 L 334,320 L 333,320 L 332,319 L 332,315 L 331,314 L 331,311 L 330,310 L 330,304 L 332,302 L 333,302 L 333,300 L 332,299 L 332,298 L 332,300 L 329,303 L 328,302 L 328,299 L 327,298 L 327,294 L 326,293 L 326,291 L 325,290 L 325,285 L 324,284 L 324,280 L 323,279 L 323,276 L 322,275 L 322,272 L 321,271 L 321,269 L 320,268 L 320,264 L 319,263 L 319,259 L 318,258 L 318,256 L 317,255 L 317,247 L 315,245 L 315,241 L 314,240 L 314,238 L 313,237 L 314,236 L 314,235 L 313,234 L 313,231 L 312,230 L 312,228 L 311,227 L 311,224 L 310,223 L 310,215 L 309,215 L 308,214 L 308,213 L 307,212 L 307,207 L 308,206 L 307,205 L 307,203 L 306,202 L 306,201 L 304,199 L 304,193 L 303,192 L 303,191 L 302,190 L 302,186 L 301,185 L 301,184 L 302,183 L 302,182 L 301,182 L 300,181 L 300,179 L 299,178 L 299,173 L 298,172 L 298,166 L 297,165 L 297,164 L 296,163 L 296,162 L 295,161 L 295,157 L 294,156 L 294,154 L 293,153 L 293,144 L 294,143 L 295,143 L 297,141 L 297,140 L 298,139 Z" fill="white" /><path d="M 351,379 L 351,383 L 352,384 L 352,379 Z" fill="white" /><path d="M 353,376 L 353,377 Z" fill="white" /><path d="M 360,336 L 360,338 L 361,339 L 361,340 L 361,338 L 362,337 L 361,337 Z" fill="white" /><path d="M 335,286 Z" fill="white" /><path d="M 328,285 L 328,286 L 329,286 Z" fill="white" /><path d="M 326,280 Z" fill="white" /><path d="M 393,264 Z" fill="white" /><path d="M 400,254 Z" fill="white" /><path d="M 319,253 L 319,254 Z" fill="white" /><path d="M 405,248 L 406,248 Z" fill="white" /><path d="M 449,212 L 449,213 L 450,212 Z" fill="white" /><path d="M 311,209 Z" fill="white" /><path d="M 455,208 L 455,209 L 454,210 L 455,210 L 455,209 L 456,208 L 457,208 Z" fill="white" /><path d="M 309,199 L 309,200 Z" fill="white" /><path d="M 481,192 L 480,193 L 481,192 L 485,192 Z" fill="white" /><path d="M 487,191 Z" fill="white" /><path d="M 416,190 L 417,191 L 419,191 L 418,190 Z" fill="white" /><path d="M 394,183 Z" fill="white" /><path d="M 302,176 L 302,178 L 303,179 L 303,180 L 303,176 Z" fill="white" /><path d="M 368,175 Z" fill="white" /><path d="M 368,171 L 369,172 Z" fill="white" /><path d="M 360,167 Z" fill="white" /><path d="M 328,150 L 327,151 Z" fill="white" /><path d="M 320,149 L 320,151 L 321,150 Z" fill="white" /><path d="M 298,145 Z" fill="white" /><path d="M 309,143 L 310,143 Z" fill="white" /><path d="M 303,142 L 302,143 L 301,143 L 304,143 L 304,142 Z" fill="white" /><path d="M 261,133 L 262,132 L 263,133 L 262,134 Z" fill="white" /><path d="M 349,112 L 349,113 L 350,113 L 351,112 Z" fill="url(#blueGradient)" /></svg>